<?xml version="1.0" encoding="utf-8"?>
<svg viewBox="109.728 110.294 225.679 179.299" width="225.679" height="179.299" xmlns="http://www.w3.org/2000/svg">
  <rect x="109.728" y="110.294" width="225.679" height="179.299" style="fill: rgb(145, 127, 213); stroke: rgba(0, 0, 0, 0);"/>
  <path stroke-width="0" d="M 181.821 133.462 C 184.29 133.09 187.677 133.015 190.305 134.027 C 193.073 135.093 196.282 137.202 197.941 139.966 C 199.755 142.988 201.589 145.274 200.204 151.844 C 197.016 166.962 152.538 227.477 156.652 238.665 C 159.173 245.523 175.294 239.307 185.215 239.231 C 195.703 239.15 210.673 236.293 218.02 238.1 C 222.907 239.301 225.89 241.56 227.919 244.604 C 229.964 247.673 230.903 252.84 230.181 256.482 C 229.465 260.094 226.01 264.391 223.676 266.38 C 221.888 267.904 221.721 268.059 218.02 268.643 C 208.512 270.143 167.645 271.751 153.541 269.774 C 144.963 268.571 140.733 266.397 136.007 263.552 C 131.837 261.042 128.233 257.208 126.109 254.219 C 124.448 251.883 123.765 249.893 123.281 247.432 C 122.767 244.826 122.359 242.903 123.281 238.948 C 124.871 232.123 130.267 221.103 136.29 208.405 C 144.695 190.683 165.083 149.818 171.357 140.532 C 173.742 137.003 174.375 136.91 176.165 135.724 C 177.879 134.589 179.661 133.787 181.821 133.462 Z M 250.826 150.995 C 254.524 150.025 258.014 150.446 261.007 151.561 C 263.937 152.653 266.984 154.736 268.643 157.5 C 270.456 160.522 271.627 165.736 270.905 169.378 C 270.189 172.99 267.382 176.238 264.4 179.276 C 261.017 182.723 254.325 185.09 251.109 188.609 C 248.293 191.689 246.681 195.034 245.452 198.79 C 244.164 202.728 242.85 207.999 243.756 211.799 C 244.611 215.388 247.612 218.999 250.26 221.131 C 252.686 223.084 254.924 223.804 258.744 224.525 C 264.236 225.561 274.263 225.421 281.369 225.091 C 287.966 224.784 295.042 221.746 300.034 222.828 C 304.183 223.728 307.903 226.289 309.932 229.333 C 311.978 232.402 312.962 237.515 312.195 241.21 C 311.413 244.971 308.783 249.274 305.124 251.674 C 300.86 254.472 294.019 254.913 287.025 255.633 C 278.611 256.501 265.399 256.349 257.613 255.633 C 251.759 255.095 248.455 255.02 243.473 252.805 C 237.371 250.094 228.956 244.542 223.959 238.948 C 219.194 233.613 215.516 226.551 213.778 220.283 C 212.17 214.478 212.361 209.213 213.213 202.749 C 214.217 195.126 216.648 184.554 220.566 177.296 C 224.259 170.456 230.224 164.528 235.554 160.045 C 240.372 155.993 246.21 152.207 250.826 150.995 Z" style="stroke-width: 2px; stroke: rgba(129, 151, 57, 0); fill: rgb(48, 209, 193);"/>
</svg>